<?xml version="1.0" encoding="UTF-8" standalone="no"?>
<!-- Created with Inkscape (http://www.inkscape.org/) -->

<svg
   xmlns:dc="http://purl.org/dc/elements/1.1/"
   xmlns:cc="http://creativecommons.org/ns#"
   xmlns:rdf="http://www.w3.org/1999/02/22-rdf-syntax-ns#"
   xmlns:svg="http://www.w3.org/2000/svg"
   xmlns="http://www.w3.org/2000/svg"
   xmlns:sodipodi="http://sodipodi.sourceforge.net/DTD/sodipodi-0.dtd"
   xmlns:inkscape="http://www.inkscape.org/namespaces/inkscape"
   width="210mm"
   height="210mm"
   viewBox="0 0 210 210"
   version="1.1"
   id="svg8"
   sodipodi:docname="HeartIdentity.svg"
   inkscape:version="0.92.4 (5da689c313, 2019-01-14)">
  <defs
     id="defs2" />
  <sodipodi:namedview
     id="base"
     pagecolor="#ffffff"
     bordercolor="#666666"
     borderopacity="1.0"
     inkscape:pageopacity="0.0"
     inkscape:pageshadow="2"
     inkscape:zoom="0.98994949"
     inkscape:cx="273.53701"
     inkscape:cy="375.919"
     inkscape:document-units="mm"
     inkscape:current-layer="layer1"
     showgrid="false"
     inkscape:window-width="1920"
     inkscape:window-height="1009"
     inkscape:window-x="-8"
     inkscape:window-y="-8"
     inkscape:window-maximized="1" />
  <metadata
     id="metadata5">
    <rdf:RDF>
      <cc:Work
         rdf:about="">
        <dc:format>image/svg+xml</dc:format>
        <dc:type
           rdf:resource="http://purl.org/dc/dcmitype/StillImage" />
        <dc:title />
      </cc:Work>
    </rdf:RDF>
  </metadata>
  <g
     inkscape:label="Layer 1"
     inkscape:groupmode="layer"
     id="layer1"
     transform="translate(0,-87)">
    <path
       style="fill:#292929;fill-opacity:1;stroke:none;stroke-width:11.33858299;stroke-linecap:butt;stroke-linejoin:miter;stroke-miterlimit:4;stroke-dasharray:none;stroke-opacity:1"
       d="M 226.77734 86.476562 C 141.74093 85.74752 56.705078 145.27024 56.705078 267.23047 C 56.705078 426.05223 343.07964 572.12003 396.84961 702.35352 C 450.61951 572.12003 736.99609 426.05223 736.99609 267.23047 C 736.99609 23.310006 396.84961 29.142343 396.84961 267.23047 C 396.84961 148.18641 311.81375 87.205605 226.77734 86.476562 z M 294.67383 280.09375 A 14.354852 14.354852 0 0 1 304.61328 284.29688 A 14.354852 14.354852 0 0 1 307.50391 300.4082 L 391.83398 384.73828 L 391.83398 307.94727 A 14.354852 14.354852 0 0 1 382.50977 294.50977 A 14.354852 14.354852 0 0 1 396.86523 280.1543 A 14.354852 14.354852 0 0 1 411.2207 294.50977 A 14.354852 14.354852 0 0 1 401.86914 307.94531 L 401.86914 384.73633 L 486.20117 300.40234 A 14.354852 14.354852 0 0 1 489.11719 284.32812 A 14.354852 14.354852 0 0 1 499.47852 280.125 A 14.354852 14.354852 0 0 1 509.41797 284.32812 A 14.354852 14.354852 0 0 1 509.41797 304.62891 A 14.354852 14.354852 0 0 1 493.28711 307.50781 L 408.96289 391.83398 L 485.76367 391.83398 A 14.354852 14.354852 0 0 1 499.20508 382.49414 A 14.354852 14.354852 0 0 1 513.56055 396.84961 A 14.354852 14.354852 0 0 1 499.20508 411.20508 A 14.354852 14.354852 0 0 1 485.77539 401.86719 L 408.96289 401.86719 L 493.29883 486.20312 A 14.354852 14.354852 0 0 1 499.44727 484.90039 A 14.354852 14.354852 0 0 1 509.38867 489.10156 A 14.354852 14.354852 0 0 1 509.38867 509.40234 A 14.354852 14.354852 0 0 1 489.08789 509.40234 A 14.354852 14.354852 0 0 1 486.19727 493.29102 L 401.86914 408.96484 L 401.86914 485.81836 A 14.354852 14.354852 0 0 1 411.18945 499.25195 A 14.354852 14.354852 0 0 1 396.83594 513.60742 A 14.354852 14.354852 0 0 1 382.48047 499.25195 A 14.354852 14.354852 0 0 1 391.83398 485.81836 L 391.83398 408.96094 L 307.50977 493.28711 A 14.354852 14.354852 0 0 1 304.58398 509.3418 A 14.354852 14.354852 0 0 1 284.28125 509.3418 A 14.354852 14.354852 0 0 1 284.28125 489.03906 A 14.354852 14.354852 0 0 1 294.64258 484.83594 A 14.354852 14.354852 0 0 1 300.43555 486.16797 L 384.73828 401.86719 L 307.85352 401.86719 A 14.354852 14.354852 0 0 1 294.43164 411.14258 A 14.354852 14.354852 0 0 1 280.07812 396.78711 A 14.354852 14.354852 0 0 1 294.43164 382.43359 A 14.354852 14.354852 0 0 1 307.88477 391.83398 L 384.73828 391.83398 L 300.4082 307.50391 A 14.354852 14.354852 0 0 1 284.31445 304.59766 A 14.354852 14.354852 0 0 1 284.31445 284.29688 A 14.354852 14.354852 0 0 1 294.67383 280.09375 z "
       transform="matrix(0.26458333,0,0,0.26458333,0,87)"
       id="path871-3" />
    <path
       id="path871-3-1"
       style="fill:none;fill-opacity:1;stroke:#292929;stroke-width:5;stroke-linecap:round;stroke-linejoin:miter;stroke-miterlimit:4;stroke-dasharray:none;stroke-opacity:1"
       d="M 205.73882,152.8695 C 205.73882,80.613982 105,87.176773 105,157.7046 105,87.176773 4.2611776,80.613982 4.2611776,152.8695 4.2611776,199.91659 89.075285,239.71123 105,278.28974 120.92469,239.71123 205.73882,199.91659 205.73882,152.8695 Z"
       inkscape:connector-curvature="0"
       sodipodi:nodetypes="scscs" />
  </g>
  <g
     inkscape:groupmode="layer"
     id="layer3"
     inkscape:label="Layer 2"
     transform="translate(0,-87)" />
</svg>
