<?xml version="1.0" encoding="UTF-8" standalone="no"?>
<!-- Created with Inkscape (http://www.inkscape.org/) -->

<svg
   xmlns:dc="http://purl.org/dc/elements/1.1/"
   xmlns:cc="http://creativecommons.org/ns#"
   xmlns:rdf="http://www.w3.org/1999/02/22-rdf-syntax-ns#"
   xmlns:svg="http://www.w3.org/2000/svg"
   xmlns="http://www.w3.org/2000/svg"
   xmlns:sodipodi="http://sodipodi.sourceforge.net/DTD/sodipodi-0.dtd"
   xmlns:inkscape="http://www.inkscape.org/namespaces/inkscape"
   width="210mm"
   height="250mm"
   viewBox="0 0 210 250"
   version="1.1"
   id="svg8"
   sodipodi:docname="HeartIdentity.svg"
   inkscape:version="0.92.4 (5da689c313, 2019-01-14)">
  <defs
     id="defs2" />
  <sodipodi:namedview
     id="base"
     pagecolor="#ffffff"
     bordercolor="#666666"
     borderopacity="1.0"
     inkscape:pageopacity="0.0"
     inkscape:pageshadow="2"
     inkscape:zoom="0.7"
     inkscape:cx="417.78894"
     inkscape:cy="500.32311"
     inkscape:document-units="mm"
     inkscape:current-layer="layer1"
     showgrid="false"
     inkscape:window-width="1920"
     inkscape:window-height="1009"
     inkscape:window-x="-8"
     inkscape:window-y="-8"
     inkscape:window-maximized="1" />
  <metadata
     id="metadata5">
    <rdf:RDF>
      <cc:Work
         rdf:about="">
        <dc:format>image/svg+xml</dc:format>
        <dc:type
           rdf:resource="http://purl.org/dc/dcmitype/StillImage" />
        <dc:title></dc:title>
      </cc:Work>
    </rdf:RDF>
  </metadata>
  <g
     inkscape:label="Layer 1"
     inkscape:groupmode="layer"
     id="layer1"
     transform="translate(0,-47)">
    <path
       style="fill:#292929;fill-opacity:1;stroke:none;stroke-width:5;stroke-linecap:round;stroke-linejoin:miter;stroke-miterlimit:4;stroke-dasharray:none;stroke-opacity:1"
       d="M 51.091405,83.686829 C 27.139977,83.927579 4.2611898,100.46132 4.2611898,134.89559 c 0,47.04709 84.8138372,86.84174 100.7385502,125.42025 15.92469,-38.57851 100.73907,-78.37316 100.73907,-125.42025 0,-72.255514 -100.73907,-65.69246 -100.73907,4.83537 0,-36.91691 -27.601027,-56.308551 -53.908335,-56.044131 z m 13.635344,22.936591 c 19.653239,-0.19729 40.272991,14.27107 40.272991,41.81501 0,-52.621261 75.25846,-57.517821 75.25846,-3.60753 0,35.10213 -63.3617,64.79305 -75.25846,93.57672 -11.896776,-28.78367 -75.257935,-58.47459 -75.257935,-93.57672 0,-25.69162 17.091694,-38.02786 34.984944,-38.20748 z"
       id="path871-3-1"
       inkscape:connector-curvature="0" />
    <path
       style="fill:#292929;fill-opacity:1;stroke:none;stroke-width:3.00000024;stroke-linecap:butt;stroke-linejoin:miter;stroke-miterlimit:4;stroke-dasharray:none;stroke-opacity:1"
       d="m 73.581506,116.49465 c -15.709159,-0.13468 -31.418238,10.86151 -31.418238,33.39176 0,29.33986 52.903307,56.32356 62.836472,80.38217 9.93315,-24.05861 62.83699,-51.04231 62.83699,-80.38217 0,-44.95989 -62.55448,-43.98612 -62.83389,-0.29249 1.85699,0.002 3.35174,1.49745 3.35174,3.35483 v 12.3331 l 14.39085,-14.39033 c 1.31411,-1.31411 3.42978,-1.31411 4.7439,0 1.31411,1.31411 1.31411,3.42978 0,4.74389 l -14.39034,14.39085 h 12.33361 c 1.85844,0 3.35432,1.49641 3.35432,3.35484 0,1.85843 -1.49588,3.35432 -3.35432,3.35432 h -12.33413 l 14.39086,14.39085 c 1.31411,1.31411 1.31411,3.4303 0,4.74441 -1.31412,1.31411 -3.42979,1.31411 -4.7439,0 l -14.39085,-14.39085 v 12.33361 c 0,1.85844 -1.4964,3.35432 -3.35484,3.35432 -1.85843,0 -3.35431,-1.49588 -3.35431,-3.35432 v -12.33413 l -14.390858,14.39137 c -1.314111,1.31411 -3.430302,1.31411 -4.744413,0 -1.314111,-1.31411 -1.314111,-3.4303 0,-4.74441 l 14.39137,-14.39085 H 84.567398 c -1.858434,0 -3.354316,-1.49589 -3.354316,-3.35432 0,-1.85843 1.495882,-3.35484 3.354316,-3.35484 H 96.90101 L 82.510159,155.63541 c -1.314111,-1.31411 -1.314111,-3.42978 0,-4.74389 1.314111,-1.31411 3.430302,-1.31411 4.744413,0 l 14.390858,14.39085 v -12.33362 c 0,-1.85738 1.49423,-3.35315 3.35121,-3.35483 -0.13939,-21.79791 -15.776142,-32.96519 -31.415134,-33.09927 z"
       id="path871-3"
       inkscape:connector-curvature="0" />
  </g>
  <g
     inkscape:groupmode="layer"
     id="layer3"
     inkscape:label="Layer 2"
     transform="translate(0,-47)" />
</svg>
