<?xml version="1.0" encoding="UTF-8" standalone="no"?>
<!-- Created with Inkscape (http://www.inkscape.org/) -->

<svg
   xmlns:dc="http://purl.org/dc/elements/1.1/"
   xmlns:cc="http://creativecommons.org/ns#"
   xmlns:rdf="http://www.w3.org/1999/02/22-rdf-syntax-ns#"
   xmlns:svg="http://www.w3.org/2000/svg"
   xmlns="http://www.w3.org/2000/svg"
   xmlns:sodipodi="http://sodipodi.sourceforge.net/DTD/sodipodi-0.dtd"
   xmlns:inkscape="http://www.inkscape.org/namespaces/inkscape"
   width="210mm"
   height="250mm"
   viewBox="0 0 210 250"
   version="1.1"
   id="svg8"
   sodipodi:docname="PoisonIdentity.svg"
   inkscape:version="0.92.4 (5da689c313, 2019-01-14)">
  <defs
     id="defs2" />
  <sodipodi:namedview
     id="base"
     pagecolor="#ffffff"
     bordercolor="#666666"
     borderopacity="1.0"
     inkscape:pageopacity="0.0"
     inkscape:pageshadow="2"
     inkscape:zoom="1.3386246"
     inkscape:cx="291.26218"
     inkscape:cy="449.00533"
     inkscape:document-units="mm"
     inkscape:current-layer="layer3"
     showgrid="false"
     inkscape:window-width="1920"
     inkscape:window-height="1009"
     inkscape:window-x="-8"
     inkscape:window-y="-8"
     inkscape:window-maximized="1" />
  <metadata
     id="metadata5">
    <rdf:RDF>
      <cc:Work
         rdf:about="">
        <dc:format>image/svg+xml</dc:format>
        <dc:type
           rdf:resource="http://purl.org/dc/dcmitype/StillImage" />
        <dc:title></dc:title>
        <dc:title />
      </cc:Work>
    </rdf:RDF>
  </metadata>
  <g
     inkscape:label="Layer 1"
     inkscape:groupmode="layer"
     id="layer1"
     transform="translate(0,-47)" />
  <g
     inkscape:groupmode="layer"
     id="layer3"
     inkscape:label="Layer 2"
     transform="translate(0,-47)">
    <path
       style="opacity:1;fill:#292929;fill-opacity:1;fill-rule:nonzero;stroke:none;stroke-width:11.33858299;stroke-linecap:round;stroke-linejoin:miter;stroke-miterlimit:4;stroke-dasharray:none;stroke-opacity:1;paint-order:fill markers stroke"
       d="M 308.55078 253.89648 C 260.54224 325.39052 215.16458 349.17136 138.02148 366.45703 C 178.64459 380.04458 202.21497 398.64982 212.29492 421.2207 A 250.78426 250.78426 0 0 0 183.46094 537.58984 A 250.78426 250.78426 0 0 0 434.24414 788.37305 A 250.78426 250.78426 0 0 0 685.0293 537.58984 A 250.78426 250.78426 0 0 0 434.24414 286.80664 A 250.78426 250.78426 0 0 0 338.03516 306.23633 C 322.99391 293.56769 318.56063 271.1772 308.55078 253.89648 z M 433.18945 368.91797 C 523.06594 368.91801 597.31709 455.68616 559.8125 556.79688 C 544.83707 597.74738 572.18806 600.86344 558.69141 620.05078 C 506.77411 677.5925 515.57502 635.9853 500.42188 649.05664 C 485.78222 659.18475 487.62138 677.7128 488.84375 702.0957 L 433.18945 706.95117 L 377.53516 702.0957 C 378.75747 677.7128 380.59671 659.18475 365.95703 649.05664 C 350.80388 635.9853 359.60479 677.5925 307.6875 620.05078 C 294.19084 600.86344 321.54181 597.74933 306.56641 556.79883 C 269.06181 455.68811 343.31291 368.91797 433.18945 368.91797 z M 371.04883 536.79688 C 360.70543 536.91143 351.10528 543.39161 347.45898 553.74219 C 342.79168 566.99094 349.70046 581.41473 362.94922 586.08203 L 376.89844 590.99609 C 390.14717 595.66339 404.57098 588.75454 409.23828 575.50586 C 413.90562 562.2571 406.9968 547.83328 393.74805 543.16602 L 379.79688 538.25195 C 376.89872 537.23099 373.945 536.76664 371.04883 536.79688 z M 495.33008 536.79688 C 492.4339 536.76482 489.48021 537.23099 486.58203 538.25195 L 472.63086 543.16602 C 459.38214 547.83332 452.47329 562.25714 457.14062 575.50586 C 461.80789 588.75462 476.23175 595.66339 489.48047 590.99609 L 503.42969 586.08203 C 516.67841 581.41473 523.58718 566.99094 518.91992 553.74219 C 515.27358 543.39161 505.67347 536.91139 495.33008 536.79688 z M 433.18945 587.44336 L 410.89844 643.07812 L 455.48047 643.07812 L 433.18945 587.44336 z "
       transform="matrix(0.26458333,0,0,0.26458333,0,47)"
       id="path1873" />
    <path
       style="fill:#292929;fill-opacity:1;stroke:none;stroke-width:0.26458332px;stroke-linecap:butt;stroke-linejoin:miter;stroke-opacity:1"
       d="m 36.17339,141.85157 c 26.799052,-7.41639 34.089015,-16.51449 43.792005,-29.01728 -1.044646,-3.23133 -0.377287,-6.46266 0,-9.69399 -4.234117,4.00796 -8.337766,6.28934 -11.112434,4.89721 L 66.888894,88.53872 C 60.30365,93.86599 61.848249,98.67878 55.574595,102.28684 L 51.422792,84.11415 c -18.723641,15.31672 -7.303916,19.23833 -23.110336,30.40393 l 7.341669,8.23372 c -4.622688,-0.41806 -6.898599,2.46479 -9.394814,3.00764 6.071927,2.65959 10.911604,3.24347 9.94601,6.27345 -0.47518,2.61651 -2.499514,3.3659 -8.057835,5.71533 4.257205,0.84731 5.497584,1.77414 8.025904,4.10335 z"
       id="path1877"
       inkscape:connector-curvature="0"
       sodipodi:nodetypes="ccccccccccccc" />
  </g>
</svg>
