<?xml version="1.0" encoding="UTF-8" standalone="no"?>
<!-- Created with Inkscape (http://www.inkscape.org/) -->

<svg
   xmlns:dc="http://purl.org/dc/elements/1.1/"
   xmlns:cc="http://creativecommons.org/ns#"
   xmlns:rdf="http://www.w3.org/1999/02/22-rdf-syntax-ns#"
   xmlns:svg="http://www.w3.org/2000/svg"
   xmlns="http://www.w3.org/2000/svg"
   xmlns:sodipodi="http://sodipodi.sourceforge.net/DTD/sodipodi-0.dtd"
   xmlns:inkscape="http://www.inkscape.org/namespaces/inkscape"
   width="210mm"
   height="250mm"
   viewBox="0 0 210 250"
   version="1.1"
   id="svg8"
   sodipodi:docname="PoisonIdentity.svg"
   inkscape:version="0.92.4 (5da689c313, 2019-01-14)">
  <defs
     id="defs2" />
  <sodipodi:namedview
     id="base"
     pagecolor="#ffffff"
     bordercolor="#666666"
     borderopacity="1.0"
     inkscape:pageopacity="0.0"
     inkscape:pageshadow="2"
     inkscape:zoom="0.47327525"
     inkscape:cx="-36.4649"
     inkscape:cy="783.76057"
     inkscape:document-units="mm"
     inkscape:current-layer="layer3"
     showgrid="false"
     inkscape:window-width="1920"
     inkscape:window-height="1009"
     inkscape:window-x="-8"
     inkscape:window-y="-8"
     inkscape:window-maximized="1" />
  <metadata
     id="metadata5">
    <rdf:RDF>
      <cc:Work
         rdf:about="">
        <dc:format>image/svg+xml</dc:format>
        <dc:type
           rdf:resource="http://purl.org/dc/dcmitype/StillImage" />
        <dc:title></dc:title>
        <dc:title />
      </cc:Work>
    </rdf:RDF>
  </metadata>
  <g
     inkscape:label="Layer 1"
     inkscape:groupmode="layer"
     id="layer1"
     transform="translate(0,-47)" />
  <g
     inkscape:groupmode="layer"
     id="layer3"
     inkscape:label="Layer 2"
     transform="translate(0,-47)">
    <path
       style="opacity:1;fill:#292929;fill-opacity:1;fill-rule:nonzero;stroke:none;stroke-width:3;stroke-linecap:round;stroke-linejoin:miter;stroke-miterlimit:4;stroke-dasharray:none;stroke-opacity:1;paint-order:fill markers stroke"
       d="m 81.637325,114.17663 c -12.70226,18.91613 -24.708114,25.20849 -45.118891,29.78199 10.748197,3.59504 16.984351,8.51744 19.651338,14.48932 a 66.353335,66.353335 0 0 0 -7.62918,30.78914 66.353335,66.353335 0 0 0 66.353038,66.35353 66.353335,66.353335 0 0 0 66.35353,-66.35353 66.353335,66.353335 0 0 0 -66.35353,-66.35304 66.353335,66.353335 0 0 0 -25.455124,5.14114 c -3.979662,-3.35191 -5.152741,-9.27636 -7.801181,-13.84855 z"
       id="path1873"
       inkscape:connector-curvature="0" />
    <path
       style="fill:#292929;fill-opacity:1;stroke:none;stroke-width:0.26458332px;stroke-linecap:butt;stroke-linejoin:miter;stroke-opacity:1"
       d="m 36.17339,141.85157 c 26.799052,-7.41639 34.089015,-16.51449 43.792005,-29.01728 -1.044646,-3.23133 -0.377287,-6.46266 0,-9.69399 -4.234117,4.00796 -8.337766,6.28934 -11.112434,4.89721 L 66.888894,88.53872 C 60.30365,93.86599 61.848249,98.67878 55.574595,102.28684 L 51.422792,84.11415 c -18.723641,15.31672 -7.303916,19.23833 -23.110336,30.40393 l 7.341669,8.23372 c -4.622688,-0.41806 -6.898599,2.46479 -9.394814,3.00764 6.071927,2.65959 10.911604,3.24347 9.94601,6.27345 -4.131763,4.98835 -2.104208,1.29054 -11.813244,5.02354 4.257205,0.84731 9.252993,2.46593 11.781313,4.79514 z"
       id="path1877"
       inkscape:connector-curvature="0"
       sodipodi:nodetypes="ccccccccccccc" />
  </g>
</svg>
