<?xml version="1.0" encoding="UTF-8" standalone="no"?>
<!-- Created with Inkscape (http://www.inkscape.org/) -->

<svg
   xmlns:dc="http://purl.org/dc/elements/1.1/"
   xmlns:cc="http://creativecommons.org/ns#"
   xmlns:rdf="http://www.w3.org/1999/02/22-rdf-syntax-ns#"
   xmlns:svg="http://www.w3.org/2000/svg"
   xmlns="http://www.w3.org/2000/svg"
   xmlns:sodipodi="http://sodipodi.sourceforge.net/DTD/sodipodi-0.dtd"
   xmlns:inkscape="http://www.inkscape.org/namespaces/inkscape"
   width="210mm"
   height="250mm"
   viewBox="0 0 210 250"
   version="1.1"
   id="svg8"
   sodipodi:docname="ScytheIdentity.svg"
   inkscape:version="0.92.4 (5da689c313, 2019-01-14)">
  <defs
     id="defs2" />
  <sodipodi:namedview
     id="base"
     pagecolor="#ffffff"
     bordercolor="#666666"
     borderopacity="1.0"
     inkscape:pageopacity="0.0"
     inkscape:pageshadow="2"
     inkscape:zoom="0.70963216"
     inkscape:cx="158.40583"
     inkscape:cy="442.93732"
     inkscape:document-units="mm"
     inkscape:current-layer="layer3"
     showgrid="false"
     inkscape:window-width="1920"
     inkscape:window-height="1009"
     inkscape:window-x="-8"
     inkscape:window-y="-8"
     inkscape:window-maximized="1" />
  <metadata
     id="metadata5">
    <rdf:RDF>
      <cc:Work
         rdf:about="">
        <dc:format>image/svg+xml</dc:format>
        <dc:type
           rdf:resource="http://purl.org/dc/dcmitype/StillImage" />
        <dc:title></dc:title>
        <dc:title />
      </cc:Work>
    </rdf:RDF>
  </metadata>
  <g
     inkscape:label="Layer 1"
     inkscape:groupmode="layer"
     id="layer1"
     transform="translate(0,-47)" />
  <g
     inkscape:groupmode="layer"
     id="layer3"
     inkscape:label="Layer 2"
     transform="translate(0,-47)">
    <path
       style="fill:#292929;fill-opacity:1;stroke:none;stroke-width:0.26458332px;stroke-linecap:butt;stroke-linejoin:miter;stroke-opacity:1"
       d="m 193.16576,48.486241 c -3.97186,1.578879 -7.7415,3.246879 -10.00928,8.615987 C 25.776177,53.221496 3.9897256,225.10958 3.9897256,225.10958 22.363633,194.55713 162.93038,121.67106 170.17815,161.65466 c -18.21773,55.41796 -66.94564,35.51193 -98.947007,126.75706 5.813048,7.5028 45.865017,5.14937 48.976427,-2.68494 -16.67691,-90.62221 100.65751,-17.22283 72.95819,-237.240539 z m -14.44843,29.584133 -25.56722,0.122631 0.3412,56.294335 -6.57815,0.0316 -0.34123,-56.29431 -0.0315,-6.57816 6.57816,-0.0315 25.20026,-0.120893 0.39853,6.576398 z"
       id="path1746"
       inkscape:connector-curvature="0"
       sodipodi:nodetypes="ccccccccccccccccc" />
    <g
       id="g1785"
       transform="matrix(-1,0,0,1,328.07893,-1.4913885)" />
  </g>
</svg>
