<?xml version="1.0" encoding="UTF-8" standalone="no"?>
<!-- Created with Inkscape (http://www.inkscape.org/) -->

<svg
   xmlns:dc="http://purl.org/dc/elements/1.1/"
   xmlns:cc="http://creativecommons.org/ns#"
   xmlns:rdf="http://www.w3.org/1999/02/22-rdf-syntax-ns#"
   xmlns:svg="http://www.w3.org/2000/svg"
   xmlns="http://www.w3.org/2000/svg"
   xmlns:sodipodi="http://sodipodi.sourceforge.net/DTD/sodipodi-0.dtd"
   xmlns:inkscape="http://www.inkscape.org/namespaces/inkscape"
   width="210mm"
   height="210mm"
   viewBox="0 0 210 210"
   version="1.1"
   id="svg8"
   sodipodi:docname="ScytheIdentity.svg"
   inkscape:version="0.92.4 (5da689c313, 2019-01-14)">
  <defs
     id="defs2" />
  <sodipodi:namedview
     id="base"
     pagecolor="#ffffff"
     bordercolor="#666666"
     borderopacity="1.0"
     inkscape:pageopacity="0.0"
     inkscape:pageshadow="2"
     inkscape:zoom="0.70963216"
     inkscape:cx="387.39771"
     inkscape:cy="597.24262"
     inkscape:document-units="mm"
     inkscape:current-layer="layer3"
     showgrid="false"
     inkscape:window-width="1920"
     inkscape:window-height="1009"
     inkscape:window-x="-8"
     inkscape:window-y="-8"
     inkscape:window-maximized="1" />
  <metadata
     id="metadata5">
    <rdf:RDF>
      <cc:Work
         rdf:about="">
        <dc:format>image/svg+xml</dc:format>
        <dc:type
           rdf:resource="http://purl.org/dc/dcmitype/StillImage" />
        <dc:title></dc:title>
        <dc:title />
      </cc:Work>
    </rdf:RDF>
  </metadata>
  <g
     inkscape:label="Layer 1"
     inkscape:groupmode="layer"
     id="layer1"
     transform="translate(0,-87)" />
  <g
     inkscape:groupmode="layer"
     id="layer3"
     inkscape:label="Layer 2"
     transform="translate(0,-87)">
    <path
       style="fill:#292929;fill-opacity:1;stroke:none;stroke-width:0.26458332px;stroke-linecap:butt;stroke-linejoin:miter;stroke-opacity:1"
       d="m 181.84188,99.03719 c -3.395,1.21354 -6.61715,2.49558 -8.55555,6.62233 -62.1907,0 -125.95386,25.02145 -148.8059,70.49389 16.524638,-24.32554 65.732232,-65.41409 127.92294,-65.41409 -27.21138,4.46495 -16.19729,7.53371 -28.91761,12.04164 -34.424578,-1.75874 -84.55606,34.25569 -99.00533,53.37245 54.224249,-31.8769 83.98963,-14.72255 134.44657,-11.84527 -20.79169,38.86628 -58.74953,48.3497 -74.617663,119.13795 9.430498,2.90099 16.895083,1.3787 23.378933,-2.35025 14.27768,-110.68781 95.95952,-63.30331 74.15361,-182.05865 z m -9.78235,15.30294 a 5.2198404,5.2198404 0 0 1 5.21984,5.21984 5.2198404,5.2198404 0 0 1 -5.21984,5.21984 5.2198404,5.2198404 0 0 1 -4.90512,-3.44889 h -11.59309 v 32.25126 h -2.98277 v -32.25126 -2.98277 h 2.98277 11.42669 a 5.2198404,5.2198404 0 0 1 5.07152,-4.00802 z"
       id="path1746"
       inkscape:connector-curvature="0" />
    <g
       id="g1785"
       transform="matrix(-1,0,0,1,328.07893,-1.4913885)" />
  </g>
</svg>
