<?xml version="1.0" encoding="UTF-8" standalone="no"?>
<!-- Created with Inkscape (http://www.inkscape.org/) -->

<svg
   xmlns:dc="http://purl.org/dc/elements/1.1/"
   xmlns:cc="http://creativecommons.org/ns#"
   xmlns:rdf="http://www.w3.org/1999/02/22-rdf-syntax-ns#"
   xmlns:svg="http://www.w3.org/2000/svg"
   xmlns="http://www.w3.org/2000/svg"
   xmlns:sodipodi="http://sodipodi.sourceforge.net/DTD/sodipodi-0.dtd"
   xmlns:inkscape="http://www.inkscape.org/namespaces/inkscape"
   width="210mm"
   height="210mm"
   viewBox="0 0 210 210"
   version="1.1"
   id="svg8"
   sodipodi:docname="SpearIdentity.svg"
   inkscape:version="0.92.4 (5da689c313, 2019-01-14)">
  <defs
     id="defs2" />
  <sodipodi:namedview
     id="base"
     pagecolor="#ffffff"
     bordercolor="#666666"
     borderopacity="1.0"
     inkscape:pageopacity="0.0"
     inkscape:pageshadow="2"
     inkscape:zoom="0.70963216"
     inkscape:cx="576.57763"
     inkscape:cy="254.80421"
     inkscape:document-units="mm"
     inkscape:current-layer="layer3"
     showgrid="false"
     inkscape:window-width="1920"
     inkscape:window-height="1009"
     inkscape:window-x="-8"
     inkscape:window-y="-8"
     inkscape:window-maximized="1" />
  <metadata
     id="metadata5">
    <rdf:RDF>
      <cc:Work
         rdf:about="">
        <dc:format>image/svg+xml</dc:format>
        <dc:type
           rdf:resource="http://purl.org/dc/dcmitype/StillImage" />
        <dc:title />
        <dc:title />
      </cc:Work>
    </rdf:RDF>
  </metadata>
  <g
     inkscape:label="Layer 1"
     inkscape:groupmode="layer"
     id="layer1"
     transform="translate(0,-87)" />
  <g
     inkscape:groupmode="layer"
     id="layer3"
     inkscape:label="Layer 2"
     transform="translate(0,-87)">
    <path
       style="fill:#292929;fill-opacity:1;stroke:none;stroke-width:0.99999994px;stroke-linecap:butt;stroke-linejoin:miter;stroke-opacity:1"
       d="M 52.818359 52.818359 C 75.187762 92.972438 88.312065 133.57119 106.98047 173.27539 L 118.05859 120.01953 L 118.45703 196.04883 C 124.56702 207.29973 131.35673 218.45631 139.18945 229.48633 C 147.30118 240.73224 178.29627 229.78144 185.79688 232.67773 L 349.96875 396.84961 L 52.818359 694.00195 L 76.257812 717.44141 L 99.699219 740.88281 L 396.85156 443.73047 L 694.00195 740.88281 L 717.44141 717.44141 L 740.88281 694.00195 L 443.73047 396.85156 L 607.9043 232.67773 C 615.40492 229.78152 646.39803 240.73224 654.50977 229.48633 C 662.34197 218.45706 669.13254 207.30089 675.24219 196.05078 L 675.64258 120.01953 L 686.7207 173.27539 C 705.38911 133.57119 718.51341 92.972438 740.88281 52.818359 C 681.52299 85.887109 621.18551 98.733026 564.21484 139.18945 C 552.96897 147.30119 563.91766 178.29629 561.02148 185.79688 L 396.84961 349.96875 L 232.67773 185.79688 C 229.78163 178.29629 240.73219 147.30119 229.48633 139.18945 C 172.51563 98.733026 112.17818 85.887109 52.818359 52.818359 z M 226.2207 215.55664 A 13.538709 13.538709 0 0 1 235.59766 219.52148 A 13.538709 13.538709 0 0 1 238.18945 234.99805 L 278.46875 275.27734 A 13.538709 13.538709 0 0 1 284.57227 273.90625 A 13.538709 13.538709 0 0 1 293.94727 277.87109 A 13.538709 13.538709 0 0 1 296.53906 293.34766 L 336.81836 333.62695 A 13.538709 13.538709 0 0 1 342.92188 332.25586 A 13.538709 13.538709 0 0 1 352.29688 336.2207 A 13.538709 13.538709 0 0 1 354.88867 351.69727 L 396.37109 393.17969 L 438.00195 351.54688 A 13.538709 13.538709 0 0 1 440.66602 336.2207 A 13.538709 13.538709 0 0 1 450.43555 332.25586 A 13.538709 13.538709 0 0 1 455.99609 333.55273 L 494.01758 295.53125 A 13.538709 13.538709 0 0 1 496.68164 280.20312 A 13.538709 13.538709 0 0 1 506.45312 276.24023 A 13.538709 13.538709 0 0 1 512.01172 277.53711 L 551.7832 237.76562 A 13.538709 13.538709 0 0 1 554.44727 222.4375 A 13.538709 13.538709 0 0 1 564.21875 218.47461 A 13.538709 13.538709 0 0 1 573.59375 222.4375 A 13.538709 13.538709 0 0 1 573.59375 241.58398 A 13.538709 13.538709 0 0 1 557.0625 243.60938 L 517.85156 282.82031 A 13.538709 13.538709 0 0 1 515.82812 299.34961 A 13.538709 13.538709 0 0 1 499.29688 301.375 L 461.83398 338.83789 A 13.538709 13.538709 0 0 1 459.8125 355.36719 A 13.538709 13.538709 0 0 1 443.28125 357.39062 L 401.93164 398.74023 L 444.33398 441.14258 A 13.538709 13.538709 0 0 1 450.43555 439.77148 A 13.538709 13.538709 0 0 1 459.8125 443.73633 A 13.538709 13.538709 0 0 1 462.4043 459.21289 L 502.68359 499.49219 A 13.538709 13.538709 0 0 1 508.39062 498.12109 A 13.538709 13.538709 0 0 1 518.16211 502.08594 A 13.538709 13.538709 0 0 1 520.75391 517.5625 L 561.79492 558.60352 A 13.538709 13.538709 0 0 1 567.50195 557.23242 A 13.538709 13.538709 0 0 1 577.27344 561.19531 A 13.538709 13.538709 0 0 1 577.27344 580.3418 A 13.538709 13.538709 0 0 1 558.12695 580.3418 A 13.538709 13.538709 0 0 1 556.01562 563.94922 L 515.4043 523.33789 A 13.538709 13.538709 0 0 1 499.01562 521.23242 A 13.538709 13.538709 0 0 1 496.9043 504.83789 L 457.05469 464.98828 A 13.538709 13.538709 0 0 1 440.66602 462.88281 A 13.538709 13.538709 0 0 1 438.55469 446.48828 L 396.36914 404.30273 L 354.32031 446.35156 A 13.538709 13.538709 0 0 1 352.29688 462.88281 A 13.538709 13.538709 0 0 1 335.76562 464.90625 L 296.55469 504.11719 A 13.538709 13.538709 0 0 1 294.53125 520.64648 A 13.538709 13.538709 0 0 1 278 522.67188 L 240.53711 560.13477 A 13.538709 13.538709 0 0 1 238.51562 576.66406 A 13.538709 13.538709 0 0 1 219.36719 576.66406 A 13.538709 13.538709 0 0 1 219.36719 557.51758 A 13.538709 13.538709 0 0 1 228.74414 553.55273 A 13.538709 13.538709 0 0 1 234.69531 554.85352 L 272.7207 516.82812 A 13.538709 13.538709 0 0 1 275.38477 501.5 A 13.538709 13.538709 0 0 1 284.76172 497.53711 A 13.538709 13.538709 0 0 1 290.71094 498.83789 L 330.48633 459.0625 A 13.538709 13.538709 0 0 1 333.15039 443.73438 A 13.538709 13.538709 0 0 1 342.92188 439.77148 A 13.538709 13.538709 0 0 1 348.48047 441.06836 L 390.80859 398.74219 L 349.53906 357.47266 A 13.538709 13.538709 0 0 1 333.15039 355.36719 A 13.538709 13.538709 0 0 1 331.03906 338.97266 L 291.18945 299.12305 A 13.538709 13.538709 0 0 1 274.80078 297.01758 A 13.538709 13.538709 0 0 1 272.68945 280.62305 L 232.83984 240.77344 A 13.538709 13.538709 0 0 1 216.45117 238.66797 A 13.538709 13.538709 0 0 1 216.45117 219.52148 A 13.538709 13.538709 0 0 1 226.2207 215.55664 z "
       id="path1545-6"
       transform="matrix(0.26458333,0,0,0.26458333,0,87)" />
  </g>
</svg>
