<?xml version="1.0" encoding="UTF-8" standalone="no"?>
<!-- Created with Inkscape (http://www.inkscape.org/) -->

<svg
   xmlns:dc="http://purl.org/dc/elements/1.1/"
   xmlns:cc="http://creativecommons.org/ns#"
   xmlns:rdf="http://www.w3.org/1999/02/22-rdf-syntax-ns#"
   xmlns:svg="http://www.w3.org/2000/svg"
   xmlns="http://www.w3.org/2000/svg"
   xmlns:sodipodi="http://sodipodi.sourceforge.net/DTD/sodipodi-0.dtd"
   xmlns:inkscape="http://www.inkscape.org/namespaces/inkscape"
   width="210mm"
   height="210mm"
   viewBox="0 0 210 210"
   version="1.1"
   id="svg8"
   sodipodi:docname="SwordIdentity.svg"
   inkscape:version="0.92.4 (5da689c313, 2019-01-14)">
  <defs
     id="defs2" />
  <sodipodi:namedview
     id="base"
     pagecolor="#ffffff"
     bordercolor="#666666"
     borderopacity="1.0"
     inkscape:pageopacity="0.0"
     inkscape:pageshadow="2"
     inkscape:zoom="0.7"
     inkscape:cx="268.43034"
     inkscape:cy="374.00258"
     inkscape:document-units="mm"
     inkscape:current-layer="layer3"
     showgrid="false"
     inkscape:window-width="1920"
     inkscape:window-height="1009"
     inkscape:window-x="-8"
     inkscape:window-y="-8"
     inkscape:window-maximized="1" />
  <metadata
     id="metadata5">
    <rdf:RDF>
      <cc:Work
         rdf:about="">
        <dc:format>image/svg+xml</dc:format>
        <dc:type
           rdf:resource="http://purl.org/dc/dcmitype/StillImage" />
        <dc:title />
        <dc:title />
      </cc:Work>
    </rdf:RDF>
  </metadata>
  <g
     inkscape:label="Layer 1"
     inkscape:groupmode="layer"
     id="layer1"
     transform="translate(0,-87)" />
  <g
     inkscape:groupmode="layer"
     id="layer3"
     inkscape:label="Layer 2"
     transform="translate(0,-87)">
    <g
       id="g2196"
       style="fill:#292929;fill-opacity:1">
      <path
         style="fill:#292929;fill-opacity:1;stroke:none;stroke-width:0.99999994px;stroke-linecap:butt;stroke-linejoin:miter;stroke-opacity:1"
         d="M 396.84961 13.181641 C 416.01499 51.286005 451.05664 73.644262 451.05664 102.29297 L 432.13867 494.54883 L 429.25586 104.22266 C 425.4961 79.9246 410.36822 67.399416 396.84961 13.181641 z M 396.84961 13.181641 C 376.10356 41.073124 333.90039 67.780024 333.90039 97.494141 L 333.90039 505.55859 L 162.96094 497.98242 L 162.96094 572.96875 L 335.06836 565.89844 L 335.06836 780.67969 L 356.25195 773.85938 L 356.69336 748.0293 L 378.31641 748.0293 L 378.75781 773.85938 L 396.85156 780.67969 L 414.94531 773.85938 L 415.38477 748.0293 L 437.00977 748.0293 L 437.44922 773.85938 L 458.63281 780.67969 L 458.63281 565.89844 L 630.73828 572.96875 L 630.73828 497.98242 L 459.80078 505.55859 L 458.63281 97.494141 C 458.63281 68.845435 417.44357 41.286036 396.84961 13.181641 z M 396.84961 313.78906 C 400.07241 313.78876 403.15854 315.09278 405.4043 317.4043 C 407.56619 319.63025 408.77566 322.61181 408.77539 325.71484 C 408.76783 330.79196 405.54788 335.30833 400.75 336.96875 L 400.75 387.14258 C 402.51062 387.74821 404.10583 388.75737 405.40625 390.08984 C 407.56757 392.31561 408.77569 395.29601 408.77539 398.39844 C 408.76783 403.47559 405.54788 407.99188 400.75 409.65234 L 400.75 459.82812 C 402.51062 460.43368 404.10583 461.44292 405.40625 462.77539 C 407.56757 465.00108 408.77566 467.98156 408.77539 471.08398 C 408.76783 476.16102 405.54792 480.67743 400.75 482.33789 L 400.75 534.01172 L 452.61133 534.00977 C 454.31253 529.28339 458.79311 526.12955 463.81641 526.12305 C 467.03921 526.12271 470.12342 527.42868 472.36914 529.74023 C 473.54907 530.95785 474.45389 532.41348 475.02539 534.00977 L 522.38867 534.00977 C 524.08961 529.28245 528.56978 526.12925 533.59375 526.12305 C 536.81697 526.12342 539.90302 527.42777 542.14844 529.74023 C 543.32557 530.9597 544.23146 532.41405 544.80273 534.00977 L 594.3457 534.00977 C 596.04668 529.28245 600.52684 526.12925 605.55078 526.12305 C 608.77396 526.12342 611.86005 527.42773 614.10547 529.74023 C 616.26679 531.96558 617.47626 534.94671 617.47656 538.04883 C 617.47652 544.63496 612.13687 549.97262 605.55078 549.97266 C 600.08237 549.9651 595.31955 546.24286 593.99414 540.9375 L 545.15039 540.9375 C 543.82521 546.24199 539.06125 549.96608 533.59375 549.97266 C 528.12534 549.9651 523.36251 546.24286 522.03711 540.9375 L 475.36914 540.9375 C 474.04453 546.24207 469.2838 549.96735 463.81641 549.97461 C 458.34811 549.96705 453.58457 546.2429 452.25977 540.9375 L 400.75 540.9375 L 400.75 593.75781 C 402.51005 594.36326 404.1041 595.37321 405.4043 596.70508 C 407.56622 598.93099 408.77566 601.91072 408.77539 605.01367 C 408.76783 610.09075 405.54788 614.60712 400.75 616.26758 L 400.75 666.44336 C 402.39927 667.01033 403.90385 667.93274 405.1582 669.14453 C 407.47048 671.3904 408.77569 674.47577 408.77539 677.69922 C 408.76783 682.77626 405.54788 687.2927 400.75 688.95312 L 400.75 740.07617 C 402.39927 740.64318 403.90385 741.56559 405.1582 742.77734 C 407.47052 745.0228 408.777 748.10885 408.77734 751.33203 C 408.77727 757.91812 403.43765 763.25774 396.85156 763.25781 C 390.26547 763.25777 384.92582 757.91816 384.92578 751.33203 C 384.92911 745.91627 388.58429 741.18284 393.82227 739.80664 L 393.82227 689.21875 C 388.58596 687.84353 384.9327 683.11305 384.92578 677.69922 C 384.92911 672.28259 388.58335 667.54969 393.82227 666.17383 L 393.82227 616.5332 C 388.58599 615.15802 384.9327 610.42747 384.92578 605.01367 C 384.92911 599.59712 388.58335 594.86414 393.82227 593.48828 L 393.82227 540.9375 L 341.44141 540.9375 C 340.11657 546.2429 335.35305 549.96845 329.88477 549.97461 C 324.41648 549.96705 319.653 546.24297 318.32812 540.9375 L 269.48438 540.9375 C 268.15919 546.24192 263.39715 549.96616 257.92969 549.97266 C 252.46123 549.9651 247.69645 546.2429 246.37109 540.9375 L 199.70508 540.9375 C 198.38046 546.24199 193.61777 549.96735 188.15039 549.97461 C 181.56335 549.97518 176.22396 544.63586 176.22461 538.04883 C 176.22465 531.46274 181.56234 526.12308 188.14844 526.12305 C 191.25142 526.12278 194.2331 527.33221 196.45898 529.49414 C 197.75413 530.76111 198.74568 532.30365 199.35547 534.00977 L 246.72266 534.00977 C 248.42367 529.28241 252.90572 526.12921 257.92969 526.12305 C 261.03242 526.12339 264.01288 527.33202 266.23828 529.49414 C 267.53303 530.76062 268.5232 532.30422 269.13281 534.00977 L 318.67969 534.00977 C 320.38066 529.28245 324.8627 526.12921 329.88672 526.12305 C 333.10986 526.12339 336.19609 527.42781 338.44141 529.74023 C 339.6186 530.95981 340.52444 532.41405 341.0957 534.00977 L 393.82227 534.01172 L 393.82227 482.60352 C 388.58596 481.2283 384.9327 476.49786 384.92578 471.08398 C 384.92911 465.66739 388.58335 460.93442 393.82227 459.55859 L 393.82227 409.91797 C 388.58596 408.54283 384.93266 403.81227 384.92578 398.39844 C 384.92911 392.98188 388.58335 388.24887 393.82227 386.87305 L 393.82227 337.23242 C 388.58596 335.85728 384.93274 331.12868 384.92578 325.71484 C 384.92586 319.12875 390.26352 313.7891 396.84961 313.78906 z "
         transform="matrix(0.26458333,0,0,0.26458333,0,87)"
         id="path1268-8" />
    </g>
  </g>
</svg>
