<?xml version="1.0" encoding="UTF-8" standalone="no"?>
<!-- Created with Inkscape (http://www.inkscape.org/) -->

<svg
   xmlns:dc="http://purl.org/dc/elements/1.1/"
   xmlns:cc="http://creativecommons.org/ns#"
   xmlns:rdf="http://www.w3.org/1999/02/22-rdf-syntax-ns#"
   xmlns:svg="http://www.w3.org/2000/svg"
   xmlns="http://www.w3.org/2000/svg"
   xmlns:sodipodi="http://sodipodi.sourceforge.net/DTD/sodipodi-0.dtd"
   xmlns:inkscape="http://www.inkscape.org/namespaces/inkscape"
   width="210mm"
   height="250mm"
   viewBox="0 0 210 250"
   version="1.1"
   id="svg8"
   sodipodi:docname="SwordIdentity.svg"
   inkscape:version="0.92.4 (5da689c313, 2019-01-14)">
  <defs
     id="defs2" />
  <sodipodi:namedview
     id="base"
     pagecolor="#ffffff"
     bordercolor="#666666"
     borderopacity="1.0"
     inkscape:pageopacity="0.0"
     inkscape:pageshadow="2"
     inkscape:zoom="0.7"
     inkscape:cx="360.69785"
     inkscape:cy="410.83889"
     inkscape:document-units="mm"
     inkscape:current-layer="layer3"
     showgrid="false"
     inkscape:window-width="1920"
     inkscape:window-height="1009"
     inkscape:window-x="-8"
     inkscape:window-y="-8"
     inkscape:window-maximized="1" />
  <metadata
     id="metadata5">
    <rdf:RDF>
      <cc:Work
         rdf:about="">
        <dc:format>image/svg+xml</dc:format>
        <dc:type
           rdf:resource="http://purl.org/dc/dcmitype/StillImage" />
        <dc:title></dc:title>
        <dc:title />
      </cc:Work>
    </rdf:RDF>
  </metadata>
  <g
     inkscape:label="Layer 1"
     inkscape:groupmode="layer"
     id="layer1"
     transform="translate(0,-47)" />
  <g
     inkscape:groupmode="layer"
     id="layer3"
     inkscape:label="Layer 2"
     transform="translate(0,-47)">
    <path
       style="fill:#292929;fill-opacity:1;stroke:none;stroke-width:0.99999994px;stroke-linecap:butt;stroke-linejoin:miter;stroke-opacity:1"
       d="M 378.77539 17.863281 C 324.10724 95.451963 253.14585 145.66013 201.96484 243.0625 L 252.08594 720.53125 C 193.13863 715.7365 81.104061 689.91213 18.783203 655.26172 C 45.83515 709.47617 66.832318 737.40445 44.498047 767.95898 C 131.72861 786.35077 234.6743 795.0265 336.9707 797.44727 C 344.05629 842.40161 347.97035 887.35619 333.2793 932.31055 L 440.42188 932.31055 C 429.62083 887.51963 429.86223 842.72841 436.51562 797.9375 C 562.56538 796.29474 679.10972 786.51778 753.48828 775.47852 C 735.99096 743.7176 747.29198 713.20267 774.91602 634.60547 C 738.11132 663.59702 605.78392 716.74694 517.31641 722.47852 L 552.73047 243.0625 C 486.72162 122.07829 430.85875 91.427408 378.77539 17.863281 z M 383.67383 98.667969 C 453.01009 183.88267 490.76653 193.00627 514.13281 269.52539 L 483.26953 716.22266 C 469.02098 717.12018 398.90677 723.89623 384.33594 724.63086 C 386.31815 425.75194 395.0781 441.23397 383.67383 98.667969 z M 292.11328 183.0918 L 308.20703 183.0918 L 308.20703 255.75 L 378.20508 255.75 L 378.20508 272.45312 L 308.20703 272.45312 L 308.20703 345.11133 L 292.11328 345.11133 L 292.11328 272.45312 L 222.11523 272.45312 L 222.11523 255.75 L 292.11328 255.75 L 292.11328 183.0918 z "
       transform="matrix(0.26458333,0,0,0.26458333,0,47)"
       id="path815-9" />
  </g>
</svg>
