<?xml version="1.0" encoding="UTF-8" standalone="no"?>
<!-- Created with Inkscape (http://www.inkscape.org/) -->

<svg
   width="190mm"
   height="190mm"
   viewBox="0 0 190 190"
   version="1.1"
   id="svg8"
   inkscape:version="1.2 (dc2aeda, 2022-05-15)"
   sodipodi:docname="BubbleThoughtLeftBishop.svg"
   xmlns:inkscape="http://www.inkscape.org/namespaces/inkscape"
   xmlns:sodipodi="http://sodipodi.sourceforge.net/DTD/sodipodi-0.dtd"
   xmlns="http://www.w3.org/2000/svg"
   xmlns:svg="http://www.w3.org/2000/svg"
   xmlns:rdf="http://www.w3.org/1999/02/22-rdf-syntax-ns#"
   xmlns:cc="http://creativecommons.org/ns#"
   xmlns:dc="http://purl.org/dc/elements/1.1/">
  <defs
     id="defs2" />
  <sodipodi:namedview
     id="base"
     pagecolor="#ffffff"
     bordercolor="#666666"
     borderopacity="1.0"
     inkscape:pageopacity="0.0"
     inkscape:pageshadow="2"
     inkscape:zoom="1"
     inkscape:cx="362"
     inkscape:cy="286.5"
     inkscape:document-units="mm"
     inkscape:current-layer="layer1"
     showgrid="false"
     inkscape:window-width="1430"
     inkscape:window-height="843"
     inkscape:window-x="144"
     inkscape:window-y="67"
     inkscape:window-maximized="0"
     inkscape:showpageshadow="2"
     inkscape:pagecheckerboard="0"
     inkscape:deskcolor="#d1d1d1" />
  <metadata
     id="metadata5">
    <rdf:RDF>
      <cc:Work
         rdf:about="">
        <dc:format>image/svg+xml</dc:format>
        <dc:type
           rdf:resource="http://purl.org/dc/dcmitype/StillImage" />
      </cc:Work>
    </rdf:RDF>
  </metadata>
  <g
     inkscape:groupmode="layer"
     id="layer1"
     inkscape:label="Thought"
     style="display:inline">
    <path
       style="fill:#ffffff;fill-opacity:1;stroke:#000000;stroke-width:1;stroke-linecap:butt;stroke-linejoin:miter;stroke-miterlimit:4;stroke-dasharray:none;stroke-opacity:1"
       d="m 164.92885,121.60521 c 0.12065,-1.05833 3.73841,-4.43177 -0.79375,-5.09323 -0.83784,-4.20747 -5.97517,-3.66172 -7.67291,0.0662 -7.58473,-2.99861 -10.27465,3.10886 -6.48229,5.68854 0,0 -3.0708,3.049 0.99218,7.14375 1.71192,1.69853 7.79706,4.82792 8.46667,-0.79375 0.84661,2.55129 4.45884,1.55387 7.9375,-1.19062 1.18648,-1.65365 0.0286,-6.21771 -2.4474,-5.82084 z"
       id="path6103"
       inkscape:connector-curvature="0"
       sodipodi:nodetypes="cccccccc" />
    <path
       style="fill:#ffffff;fill-opacity:1;stroke:#000000;stroke-width:1;stroke-linecap:butt;stroke-linejoin:miter;stroke-miterlimit:4;stroke-dasharray:none;stroke-opacity:1"
       d="m 160.95559,92.193868 c 0.20951,-1.840545 6.49182,-7.707303 -1.37836,-8.85765 -1.45493,-7.317215 -10.37599,-6.3681 -13.32415,0.115129 -13.171,-5.214884 -17.8421,5.406626 -11.25661,9.892954 0,0 -5.33249,5.302526 1.72295,12.423719 2.97277,2.95392 13.53973,8.39625 14.70251,-1.38041 1.47015,4.43696 7.74286,2.70234 13.78361,-2.07061 2.06034,-2.875873 0.0497,-10.813243 -4.24995,-10.123045 z"
       id="path6103-8"
       inkscape:connector-curvature="0"
       sodipodi:nodetypes="cccccccc" />
    <path
       style="fill:#ffffff;fill-opacity:1;stroke:#000000;stroke-width:1;stroke-linecap:butt;stroke-linejoin:miter;stroke-miterlimit:4;stroke-dasharray:none;stroke-opacity:1"
       d="M 113.61729,66.189723 C 114.29815,58.107102 134.71424,32.343657 109.13792,27.291991 104.40971,-4.8410339 75.418254,-0.67306373 65.837394,27.797572 23.034554,4.8967821 7.854514,51.540381 29.255914,71.241767 c 0,0 -17.3294,23.285663 5.5992,54.557873 9.66085,12.97193 63.315683,38.98821 67.094486,-3.9453 14.83181,9.695 22.19895,1.12329 25.47907,-11.2096 6.69565,-12.6292 0.16161,-47.485589 -13.81138,-44.454634 z"
       id="path6103-8-6"
       inkscape:connector-curvature="0"
       sodipodi:nodetypes="ccccccccc" />
  </g>
  <g
     inkscape:groupmode="layer"
     id="layer2"
     inkscape:label="Speech"
     style="display:none">
    <path
       style="display:inline;fill:#4f79be;fill-opacity:1;stroke:#000000;stroke-width:1;stroke-linecap:butt;stroke-linejoin:miter;stroke-miterlimit:4;stroke-dasharray:none;stroke-opacity:1"
       d="M 163.38224,136.2068 134.27807,93.344301 C 135.64448,80.722731 138.38158,8.8880489 72.630151,7.354716 -7.970939,6.167106 -2.8563787,142.93128 66.544731,145.73179 c 11.37496,0.9296 38.701519,0.4045 60.854169,-22.75416 z"
       id="path6137"
       inkscape:connector-curvature="0"
       sodipodi:nodetypes="cccccc" />
  </g>
  <g
     inkscape:groupmode="layer"
     id="layer15"
     inkscape:label="piece"
     style="display:inline">
    <path
       style="display:inline;fill:#292929;fill-opacity:1;stroke:none;stroke-width:4.64701;stroke-linecap:round;stroke-opacity:1"
       d="m 82.716322,38.355539 c 10.80209,-2.99685 4.7055,-16.70947 -4.503658,-19.242651 -9.56463,3.362631 -13.55694,15.993021 -4.47137,19.172921 C 52.161639,54.248398 35.638278,97.58957 55.147943,102.8352 l -10.76847,-0.23229 c -3.844852,0 -4.363855,16.83928 0.200766,16.83928 l 64.513111,0.0309 c 3.02008,0 2.84743,-16.00476 -0.55278,-16.00476 -5.5285,0 -7.00556,-0.0817 -11.473968,-0.0817 22.712078,-6.67776 5.795738,-38.578842 -5.18169,-59.192502 -5.42777,8.85867 -10.897298,25.41811 -10.897298,31.595917 -5.71804,-3.311487 -1.59114,-25.465657 1.728708,-37.434506 z"
       id="path1266-8"
       sodipodi:nodetypes="cccccccccccc" />
  </g>
</svg>
