<?xml version="1.0" encoding="UTF-8" standalone="no"?>
<svg
   xmlns:dc="http://purl.org/dc/elements/1.1/"
   xmlns:cc="http://creativecommons.org/ns#"
   xmlns:rdf="http://www.w3.org/1999/02/22-rdf-syntax-ns#"
   xmlns:svg="http://www.w3.org/2000/svg"
   xmlns="http://www.w3.org/2000/svg"
   xmlns:sodipodi="http://sodipodi.sourceforge.net/DTD/sodipodi-0.dtd"
   xmlns:inkscape="http://www.inkscape.org/namespaces/inkscape"
   version="1.1"
   width="3200"
   height="1400"
   viewBox="0 0 3199.9999 1400"
   id="svg30"
   sodipodi:docname="LogoWhiteText.svg"
   inkscape:version="0.92.4 (5da689c313, 2019-01-14)">
  <metadata
     id="metadata36">
    <rdf:RDF>
      <cc:Work
         rdf:about="">
        <dc:format>image/svg+xml</dc:format>
        <dc:type
           rdf:resource="http://purl.org/dc/dcmitype/StillImage" />
        <dc:title></dc:title>
      </cc:Work>
    </rdf:RDF>
  </metadata>
  <defs
     id="defs34" />
  <sodipodi:namedview
     pagecolor="#ffffff"
     bordercolor="#666666"
     borderopacity="1"
     objecttolerance="10"
     gridtolerance="10"
     guidetolerance="10"
     inkscape:pageopacity="0"
     inkscape:pageshadow="2"
     inkscape:window-width="1388"
     inkscape:window-height="860"
     id="namedview32"
     showgrid="false"
     inkscape:zoom="0.22057364"
     inkscape:cx="1265.5372"
     inkscape:cy="854.23218"
     inkscape:window-x="0"
     inkscape:window-y="0"
     inkscape:window-maximized="0"
     inkscape:current-layer="g28" />
  <g
     transform="matrix(7.3170732,0,0,7.3170732,73.170732,-224.3903)"
     id="g28">
    <defs
       id="SvgjsDefs6877" />
    <g
       id="SvgjsG6880"
       featureKey="PPkF4s-0"
       transform="matrix(2.8697346,0,0,2.8697346,131.15456,94.94597)"
       style="fill:#ffffff;fill-opacity:1">
      <path
         d="m 2.42,15.38 q 0,1.6 1.15,2.67 1.15,1.07 2.71,1.11 1.62,0 2.64,-1.09 1.02,-1.09 1.02,-2.69 0,-1.64 -1.03,-2.71 Q 7.88,11.6 6.26,11.6 4.68,11.6 3.57,12.69 2.46,13.78 2.42,15.38 Z M 1.34,4.88 h 1.2 v 7.5 H 2.58 Q 3.1,11.48 4.12,11 q 1.02,-0.48 2.16,-0.48 2.16,0 3.51,1.4 1.35,1.4 1.35,3.46 0,2.14 -1.38,3.49 -1.38,1.35 -3.48,1.37 -1.18,0 -2.21,-0.52 Q 3.04,19.2 2.58,18.38 H 2.54 V 20 h -1.2 z m 12.52,5.88 3.06,7.78 2.98,-7.78 h 1.28 l -4.74,12.06 q -0.78,1.98 -2.56,1.98 -0.56,0 -1.18,-0.18 l 0.12,-1.12 q 0.66,0.22 1.08,0.22 0.46,0 0.82,-0.32 0.36,-0.32 0.7,-1.16 l 0.86,-2.2 -3.76,-9.28 z m 16.6,-4.92 5.16,11.88 5.16,-11.88 h 1.88 V 20 H 41.34 V 7.52 H 41.3 L 35.9,20 H 35.32 L 29.84,7.52 H 29.8 V 20 H 28.48 V 5.84 Z m 16.38,11.6 q 0,0.76 0.61,1.24 0.61,0.48 1.51,0.48 1.62,0 2.41,-0.85 0.79,-0.85 0.79,-2.31 v -0.64 h -1.44 q -1.84,0 -2.86,0.56 -1.02,0.56 -1.02,1.52 z m 2.72,-6.92 q 1.86,0 2.76,0.86 0.9,0.86 0.92,2.4 v 2.74 q 0,2.24 0.18,3.48 H 52.3 q -0.12,-0.62 -0.12,-1.5 h -0.04 q -1,1.74 -3.22,1.74 -1.5,0 -2.38,-0.74 -0.88,-0.74 -0.9,-2 0,-1.54 1.33,-2.32 1.33,-0.78 3.71,-0.78 h 1.48 v -0.54 q 0,-1.14 -0.7,-1.7 -0.7,-0.56 -1.9,-0.56 -1.6,0 -2.82,1.04 l -0.7,-0.82 q 0.66,-0.64 1.63,-0.97 0.97,-0.33 1.89,-0.33 z m 11,0 q 0.34,0 0.7,0.1 l -0.14,1.18 q -0.22,-0.08 -0.48,-0.08 -1.46,0 -2.23,0.9 -0.77,0.9 -0.77,2.34 V 20 h -1.2 v -6.74 q 0,-0.2 -0.1,-2.5 h 1.2 q 0.04,1.38 0.08,1.62 1.04,-1.86 2.94,-1.86 z m 6.88,0 q 2,0 3.44,1.6 l -0.96,0.72 q -1.16,-1.24 -2.5,-1.24 -1.56,0 -2.59,1.06 -1.03,1.06 -1.05,2.72 0,1.66 1.04,2.71 1.04,1.05 2.6,1.07 1.48,0 2.5,-1.28 l 0.92,0.76 q -1.34,1.58 -3.4,1.6 -2.1,0 -3.46,-1.36 -1.36,-1.36 -1.4,-3.5 0,-2.06 1.35,-3.44 1.35,-1.38 3.51,-1.42 z m 12.52,4.08 q 0,-1.26 -0.94,-2.13 -0.94,-0.87 -2.28,-0.87 -1.3,0 -2.24,0.87 -0.94,0.87 -1.1,2.13 z m -3.14,-4.08 q 1.92,0 3.12,1.24 1.2,1.24 1.22,3.2 v 0.72 H 73.4 q 0.08,1.56 1.03,2.51 0.95,0.95 2.47,0.97 0.94,0 1.79,-0.45 0.85,-0.45 1.31,-1.19 l 0.88,0.74 q -1.3,1.98 -4,1.98 -2.12,-0.02 -3.39,-1.38 -1.27,-1.36 -1.29,-3.5 0,-2.08 1.31,-3.45 1.31,-1.37 3.31,-1.39 z m 7.22,-5.64 h 1.2 V 20 h -1.2 z m 4.8,0 h 1.2 V 20 h -1.2 z"
         id="path25"
         inkscape:connector-curvature="0"
         style="fill:#ffffff;fill-opacity:1" />
    </g>
    <path
       style="fill:#2beb8c;fill-opacity:1;stroke:none;stroke-width:0.13666667px;stroke-linecap:butt;stroke-linejoin:miter;stroke-opacity:1"
       d="M 37.546477,107.86272 C 9.2358986,134.81374 0.67240697,122.22461 -0.04006493,142.84251 15.216201,132.34071 18.301302,139.24343 27.102449,129.71585 c -3.230596,1.46932 -6.195812,2.1971 -6.744935,1.79888 11.924036,-4.5006 15.392502,-14.68897 17.188963,-23.65201 z m -28.9700304,25.9845 c -1.079698,1.60083 -4.0079197,3.32743 -5.2354378,3.30221 0.1572593,-1.86789 2.9621316,-2.50814 5.2354378,-3.30221 z"
       id="path5601"
       inkscape:connector-curvature="0"
       sodipodi:nodetypes="cccccccc" />
    <path
       style="fill:#2beb8c;fill-opacity:1;stroke:none;stroke-width:0.13666667px;stroke-linecap:butt;stroke-linejoin:miter;stroke-opacity:1"
       d="M 2.1440833,151.55847 C -18.264468,141.89723 27.553437,131.72292 52.0506,137.88979 c 36.195243,7.77765 38.657526,11.50564 50.9867,13.47541 -5.279757,0.0586 -9.34003,-0.36629 -15.882987,-1.59469 43.457907,21.27341 -6.884984,37.89905 -17.884751,35.16226 29.282961,-8.01559 35.511938,-23.50738 14.027509,-34.74118 -8.634217,-3.36244 -12.110158,-4.70729 -23.898733,-6.94823 21.432111,7.14959 26.93263,12.54274 31.439951,16.98573 C 52.0506,137.88979 -2.2295761,139.16803 2.1440833,151.55847 Z"
       id="path5605"
       inkscape:connector-curvature="0"
       sodipodi:nodetypes="ccccccccc" />
    <path
       style="fill:#2beb8c;fill-opacity:1;stroke:none;stroke-width:0.13666667px;stroke-linecap:butt;stroke-linejoin:miter;stroke-opacity:1"
       d="m 94.506788,151.72774 c 15.962242,0.87882 25.705432,6.28359 28.316842,14.75202 2.42278,7.85673 -1.02777,15.53839 -4.43362,17.8899 1.42324,-5.94578 8.18534,-26.57868 -23.883222,-32.64192 z"
       id="path5607"
       inkscape:connector-curvature="0"
       sodipodi:nodetypes="cscc" />
    <path
       style="fill:#2beb8c;fill-opacity:1;stroke:none;stroke-width:0.13666667px;stroke-linecap:butt;stroke-linejoin:miter;stroke-opacity:1"
       d="m 94.506788,151.72774 c 10.522512,4.66142 20.628792,13.68645 13.486782,24.26176 -7.42721,10.99764 -31.596632,22.59891 -34.485496,26.1662 32.391356,-30.59608 44.449386,-30.75412 20.998714,-50.42796 z"
       id="path5607-3"
       inkscape:connector-curvature="0"
       sodipodi:nodetypes="cscc" />
    <path
       style="fill:#a07ded;fill-opacity:1;stroke:none;stroke-width:0.13666667px;stroke-linecap:butt;stroke-linejoin:miter;stroke-opacity:1"
       d="m 94.506788,151.72774 c 25.531042,4.68804 35.146562,28.21369 1.860518,46.60733 8.052004,-7.08551 8.724394,-11.22202 12.705524,-16.06434 -17.373258,15.99799 -11.867067,16.97606 -30.545489,27.08693 3.957802,-4.06488 7.054438,-6.40599 10.414242,-10.85268 -7.683381,6.24372 -16.381046,10.97765 -24.699621,21.23553 14.415625,-21.45729 20.330383,-21.24338 37.783718,-34.2374 13.32284,-11.12835 14.57052,-24.45598 -7.518892,-33.77537 z"
       id="path5624"
       inkscape:connector-curvature="0"
       sodipodi:nodetypes="cccccccc" />
    <path
       style="fill:#a07ded;fill-opacity:1;stroke:none;stroke-width:0.13666667px;stroke-linecap:butt;stroke-linejoin:miter;stroke-opacity:1"
       d="M 126.25546,33.808198 C 121.5784,66.759281 69.677828,90.522437 46.373629,103.447 c -6.990379,4.34293 -1.436742,21.44948 -20.366852,30.21072 l 6.442116,-0.89606 0.232788,-0.0269 8.945585,-5.97956 c 1.510191,-2.77877 7.728709,-6.2421 7.748842,-7.01708 -2.742348,-2.33696 -6.130648,-2.05298 -6.189939,-7.62717 0.711119,-0.34625 1.148708,-0.29388 1.574696,-0.17564 -0.761432,3.38047 1.651362,5.112 3.57368,6.20745 -2.073952,-3.07727 -0.418249,-6.29683 1.901757,-5.55284 1.650702,0.60231 3.11322,2.1837 3.972142,3.04979 L 121.01554,64.866732 c -20.76556,17.024079 -57.367717,47.615458 -61.264861,52.894828 -1.551016,-1.10491 -3.260645,-0.81243 -4.078858,-0.35167 1.328854,1.56474 2.726456,3.18778 2.757413,4.66244 0.136467,1.5628 -3.443054,1.43397 -5.23661,0.1231 0.95394,1.1535 3.27845,4.19216 3.083369,6.60271 -0.705442,0.20114 -1.338674,0.19942 -1.842516,-0.16369 0.113695,-2.96898 -0.104621,-5.76468 -4.634913,-7.99077 -1.644827,1.81672 -4.049502,3.58137 -4.053744,6.32505 -1.004648,-0.10017 -2.020535,-0.14191 -3.161486,0.41973 l -2.772264,4.40263 c 20.682196,-2.55552 36.196068,13.50723 58.024183,-7.08042 -7.211517,3.95493 -15.558376,4.52133 -36.551644,0.3703 37.838194,3.1729 55.191601,-12.90312 59.871611,-24.07921 -14.14481,11.48772 -26.727161,10.09106 -39.270915,12.28796 35.771435,-8.14435 50.847495,-25.359911 50.963415,-47.827 -5.52289,10.756088 -8.96508,17.112791 -38.281065,30.923303 C 110.49542,86.952784 139.53671,69.722271 126.25546,33.80828 Z M 53.192624,122.1954 c 0,0 6.379129,1.23815 3.341008,-2.60446 -2.184198,-2.23935 -5.119795,0.0323 -5.625469,0.66005 -0.420872,0.50199 1.257008,0.96537 2.284461,1.94443 z m -4.858079,-4.0526 c 0.578215,0.57881 2.211293,0.59655 2.839953,0.45334 1.493574,-0.41849 1.864299,-1.27556 1.864299,-1.27556 0.335642,-0.76838 -1.567287,-3.58911 -3.011224,-3.35121 -1.443953,0.23791 -2.18867,1.8627 -1.693028,4.17343 z"
       id="path5628"
       inkscape:connector-curvature="0"
       inkscape:transform-center-x="-93.866919"
       inkscape:transform-center-y="-94.335662" />
    <path
       inkscape:connector-curvature="0"
       style="fill:#2beb8c;fill-opacity:1;stroke:none;stroke-width:0.13666667px;stroke-linecap:butt;stroke-linejoin:miter;stroke-opacity:1"
       d="m 125.49957,32.926172 c -4.67704,32.951067 -57.599721,54.52227 -80.903902,67.446828 -6.99038,4.34295 0.341219,24.52348 -18.588891,33.28472 l 3.226983,-0.58646 C 45.726025,122.41116 41.740004,105.60016 46.267888,103.7853 54.612816,100.26002 129.766,64.374193 126.25546,33.808198 Z"
       id="path5628-9"
       sodipodi:nodetypes="ccccccc" />
  </g>
</svg>
