<?xml version="1.0" encoding="UTF-8" standalone="no"?>
<!-- Created with Inkscape (http://www.inkscape.org/) -->

<svg
   width="190mm"
   height="190mm"
   viewBox="0 0 190 190"
   version="1.1"
   id="svg8"
   inkscape:version="1.2 (dc2aeda, 2022-05-15)"
   sodipodi:docname="PawnWhiteBishop.svg"
   xmlns:inkscape="http://www.inkscape.org/namespaces/inkscape"
   xmlns:sodipodi="http://sodipodi.sourceforge.net/DTD/sodipodi-0.dtd"
   xmlns="http://www.w3.org/2000/svg"
   xmlns:svg="http://www.w3.org/2000/svg"
   xmlns:rdf="http://www.w3.org/1999/02/22-rdf-syntax-ns#"
   xmlns:cc="http://creativecommons.org/ns#"
   xmlns:dc="http://purl.org/dc/elements/1.1/">
  <defs
     id="defs2" />
  <sodipodi:namedview
     id="base"
     pagecolor="#ffffff"
     bordercolor="#666666"
     borderopacity="1.0"
     inkscape:pageopacity="0.0"
     inkscape:pageshadow="2"
     inkscape:zoom="1.0182019"
     inkscape:cx="358.47506"
     inkscape:cy="411.01866"
     inkscape:document-units="mm"
     inkscape:current-layer="layer8"
     showgrid="false"
     inkscape:window-width="1606"
     inkscape:window-height="963"
     inkscape:window-x="0"
     inkscape:window-y="25"
     inkscape:window-maximized="0"
     inkscape:showpageshadow="2"
     inkscape:pagecheckerboard="0"
     inkscape:deskcolor="#d1d1d1" />
  <metadata
     id="metadata5">
    <rdf:RDF>
      <cc:Work
         rdf:about="">
        <dc:format>image/svg+xml</dc:format>
        <dc:type
           rdf:resource="http://purl.org/dc/dcmitype/StillImage" />
      </cc:Work>
    </rdf:RDF>
  </metadata>
  <g
     inkscape:groupmode="layer"
     id="layer2"
     inkscape:label="CloakFrontWhite"
     style="display:inline"
     transform="translate(0,-107)">
    <g
       id="g965"
       style="fill:#d9d9d9;fill-opacity:1"
       transform="matrix(1.5351976,0,0,0.9966301,-67.55081,44.429655)">
      <path
         sodipodi:nodetypes="cccccccccc"
         inkscape:connector-curvature="0"
         id="path829"
         d="m 106.13324,72.22683 c -5.08061,0 -11.847072,4.506889 -12.010432,6.548099 -2.82601,19.75468 -4.63617,17.64569 -6.08038,25.791521 -0.27118,2.20282 -0.67707,4.04745 0.26727,6.08038 -4.416529,2.12471 -2.486444,2.74458 -8.61945,5.54584 l -3.74177,90.06983 c -0.94163,2.54276 -2.22692,4.93826 -4.40995,6.94901 v 11.49259 c -5.34836,7.81541 -13.246956,15.07119 -21.114289,19.64431 l 56.523341,1e-5"
         style="display:inline;fill:#d9d9d9;fill-opacity:1;stroke:#000000;stroke-width:4;stroke-linecap:round;stroke-linejoin:miter;stroke-miterlimit:4;stroke-dasharray:none;stroke-opacity:1" />
      <path
         sodipodi:nodetypes="cccccccccc"
         inkscape:connector-curvature="0"
         id="path829-8"
         d="m 105.88267,72.22683 c 5.38046,0 11.5965,4.50689 11.75986,6.5481 2.82601,19.754682 4.63617,17.64569 6.08038,25.79153 0.27118,2.20282 0.67707,4.04745 -0.26727,6.08037 4.41653,2.12471 2.48645,2.74459 8.61945,5.54585 l 3.74177,90.06983 c 0.94163,2.54276 2.22692,4.93826 4.40995,6.949 v 11.49259 c 5.34836,7.81541 13.24696,15.07119 21.11429,19.64432 h -55.4626"
         style="display:inline;fill:#d9d9d9;fill-opacity:1;stroke:#000000;stroke-width:4;stroke-linecap:round;stroke-linejoin:miter;stroke-miterlimit:4;stroke-dasharray:none;stroke-opacity:1" />
    </g>
    <path
       style="fill:#000000;fill-opacity:1;stroke:#000000;stroke-width:0.327789;stroke-linecap:round;stroke-linejoin:miter;stroke-miterlimit:4;stroke-dasharray:none;stroke-opacity:1"
       d="m 129.26433,157.93201 c -2.42724,3.20181 -3.22201,3.3773 -5.75713,9.28662 -2.29811,5.30001 -2.81091,35.49846 1.29227,54.85268 1.17615,-22.78984 2.65052,-51.60267 10.41108,-61.84053 0.71045,-0.66615 -5.11901,-3.10217 -5.94622,-2.29877 z"
       id="path1651"
       inkscape:connector-curvature="0"
       sodipodi:nodetypes="ccccc" />
    <path
       style="display:inline;fill:#000000;fill-opacity:1;stroke:#000000;stroke-width:0.163895;stroke-linecap:round;stroke-linejoin:miter;stroke-miterlimit:4;stroke-dasharray:none;stroke-opacity:1"
       d="m 64.009928,157.71625 c 1.631232,-0.51432 3.674965,-0.0965 7.048362,2.05094 3.036134,1.922 1.592946,5.24278 2.844923,14.99566 -5.658905,-10.47789 -3.953423,-12.52468 -10.313487,-15.32159 -0.564159,-0.17313 -0.247376,-1.93863 0.420202,-1.72501 z"
       id="path1651-7"
       inkscape:connector-curvature="0"
       sodipodi:nodetypes="ccccc" />
    <path
       style="display:inline;fill:#000000;fill-opacity:1;stroke:#000000;stroke-width:0.245842;stroke-linecap:round;stroke-linejoin:miter;stroke-miterlimit:4;stroke-dasharray:none;stroke-opacity:1"
       d="m 58.720213,158.03014 c 2.435101,2.15967 3.057333,2.22209 6.115269,6.37242 2.76066,3.72032 3.854944,10.25688 4.707036,24.89894 -5.440675,-16.73325 -6.967191,-22.16511 -14.753051,-29.07073 -0.658379,-0.43195 3.158586,-2.72407 3.930746,-2.20063 z"
       id="path1651-7-7"
       inkscape:connector-curvature="0"
       sodipodi:nodetypes="ccccc" />
    <path
       style="display:inline;fill:#000000;fill-opacity:1;stroke:#000000;stroke-width:0.327789;stroke-linecap:round;stroke-linejoin:miter;stroke-miterlimit:4;stroke-dasharray:none;stroke-opacity:1"
       d="m 169.57762,289.22955 c -5.02962,-1.43988 -5.81222,-1.24266 -13.60532,-4.71161 -7.00822,-3.10105 -14.98435,-10.17524 -31.00455,-26.71363 23.46615,16.96721 30.80693,22.57871 46.88881,27.18296 1.20381,0.21384 -0.8498,4.51251 -2.27894,4.24228 z"
       id="path1651-6"
       inkscape:connector-curvature="0"
       sodipodi:nodetypes="ccccc" />
    <path
       style="display:inline;fill:#000000;fill-opacity:1;stroke:#000000;stroke-width:0.327789;stroke-linecap:round;stroke-linejoin:miter;stroke-miterlimit:4;stroke-dasharray:none;stroke-opacity:1"
       d="m 171.95007,289.47972 c -5.48489,-0.2363 -6.11639,0.1228 -15.26709,-1.40662 0,0 -6.09529,-1.33741 -29.86251,-13.32137 30.99005,10.73365 27.49833,9.47971 45.03609,10.23554 1.24385,-0.0664 1.57883,4.42905 0.0935,4.49245 z"
       id="path1651-6-7"
       inkscape:connector-curvature="0"
       sodipodi:nodetypes="cccccc" />
    <path
       style="display:inline;fill:#000000;fill-opacity:1;stroke:#000000;stroke-width:0.327789;stroke-linecap:round;stroke-linejoin:miter;stroke-miterlimit:4;stroke-dasharray:none;stroke-opacity:1"
       d="m 21.139055,289.11497 c 5.029629,-1.43988 14.911976,-0.20004 22.705059,-3.66899 7.008223,-3.10105 17.562882,-28.03237 22.504683,-47.50081 -9.592008,23.16224 -22.504683,47.50081 -46.462909,48.12618 -1.20381,0.21383 -0.17598,3.31384 1.253167,3.04362 z"
       id="path1651-6-0"
       inkscape:connector-curvature="0"
       sodipodi:nodetypes="ccccc" />
    <path
       style="fill:none;stroke:#000000;stroke-width:3.71082;stroke-linecap:butt;stroke-linejoin:miter;stroke-miterlimit:4;stroke-dasharray:none;stroke-opacity:1"
       d="m 68.022026,154.70362 c 36.990204,14.46941 31.586741,9.5043 53.955964,0"
       id="path1728"
       inkscape:connector-curvature="0"
       sodipodi:nodetypes="cc" />
  </g>
  <g
     inkscape:groupmode="layer"
     id="layer4"
     inkscape:label="KingOLD"
     style="display:none" />
  <g
     inkscape:groupmode="layer"
     id="layer5"
     inkscape:label="BishopOLD"
     style="display:none;fill:#292929;fill-opacity:1">
    <path
       style="fill:#292929;fill-opacity:1;stroke:#000000;stroke-width:0.264583px;stroke-linecap:butt;stroke-linejoin:miter;stroke-opacity:1"
       d="M 93.076632,175.44792 Z"
       id="path3025"
       inkscape:connector-curvature="0" />
    <g
       id="g3107"
       transform="translate(1.2146585)"
       style="fill:#292929;fill-opacity:1">
      <path
         sodipodi:nodetypes="cccccc"
         inkscape:connector-curvature="0"
         id="path3027"
         d="M 93.786567,175.44792 H 72.372603 c 6.781594,-24.38355 20.640334,-31.604 18.0582,-61.32664 -3.943871,0.21556 -11.523481,-2.61271 -10.159685,-4.8513 4.571451,-7.82686 10.92846,-5.93351 13.514224,-24.630844 -5.460953,4.077039 -3.793789,-1.008105 0,-10.914063"
         style="fill:#292929;fill-opacity:1;stroke:none;stroke-width:0.264583px;stroke-linecap:butt;stroke-linejoin:miter;stroke-opacity:1" />
      <path
         sodipodi:nodetypes="cccccc"
         inkscape:connector-curvature="0"
         id="path3027-7"
         d="m 93.076632,175.44792 h 22.121448 c -6.78159,-24.38355 -20.640332,-31.604 -18.058198,-61.32664 3.943868,0.21556 11.523478,-2.61271 10.159688,-4.8513 -4.57145,-7.82686 -10.928463,-5.93351 -13.514228,-24.630844 5.460954,4.077039 3.527596,-0.732872 -0.12583,-4.605221"
         style="fill:#292929;fill-opacity:1;stroke:none;stroke-width:0.264583px;stroke-linecap:butt;stroke-linejoin:miter;stroke-opacity:1" />
    </g>
  </g>
  <g
     inkscape:groupmode="layer"
     id="layer6"
     inkscape:label="RookOLD"
     style="display:none">
    <g
       id="g3103">
      <path
         sodipodi:nodetypes="ccccccccccccc"
         inkscape:connector-curvature="0"
         id="path3060"
         d="M 94.995278,175.44792 H 79.025785 v -4.56407 h 2.645836 l 8.202083,-47.4927 V 113.8 H 82.531516 V 97.461979 h 4.694407 l 0.04677,6.813021 h 4.694978 v -6.879167 h 3.032333"
         style="fill:#ffffff;fill-opacity:1;stroke:none;stroke-width:0.264583px;stroke-linecap:butt;stroke-linejoin:miter;stroke-opacity:1" />
      <path
         sodipodi:nodetypes="ccccccccccccc"
         inkscape:connector-curvature="0"
         id="path3060-1"
         d="m 93.417224,175.44792 h 17.556996 v -4.56407 h -2.64584 l -8.20208,-47.4927 V 113.8 h 7.34219 V 97.461979 h -4.6944 l -0.0468,6.813021 h -4.928837 v -6.879167 h -3.691408"
         style="fill:#ffffff;fill-opacity:1;stroke:none;stroke-width:0.264583px;stroke-linecap:butt;stroke-linejoin:miter;stroke-opacity:1" />
    </g>
  </g>
  <g
     inkscape:groupmode="layer"
     id="layer7"
     inkscape:label="BombOLD"
     style="display:none">
    <path
       style="fill:#ffffff;fill-opacity:1;stroke:none;stroke-width:0.264583px;stroke-linecap:butt;stroke-linejoin:miter;stroke-opacity:1"
       d="M 95.000001,175.44792 H 74.295972 c 0.926958,-0.48401 0.839416,-0.98348 -0.009,-1.52136 12.723322,-1.41942 18.257927,-29.98115 18.79883,-38.31795 l 1.772463,-0.0468"
       id="path3078"
       inkscape:connector-curvature="0"
       sodipodi:nodetypes="ccccc" />
    <circle
       style="opacity:1;fill:#ffffff;fill-opacity:1;fill-rule:nonzero;stroke:none;stroke-width:0.265;stroke-linecap:round;stroke-linejoin:bevel;stroke-miterlimit:4;stroke-dasharray:none;stroke-opacity:1;paint-order:fill markers stroke"
       id="path3080"
       cx="95"
       cy="118.52158"
       r="20.112032" />
    <path
       style="fill:#ffffff;fill-opacity:1;stroke:none;stroke-width:0.264583px;stroke-linecap:butt;stroke-linejoin:miter;stroke-opacity:1"
       d="m 77.531062,102.73644 3.739018,4.97779 12.998298,-7.11992 -4.984442,-6.04415 z"
       id="path3082"
       inkscape:connector-curvature="0"
       sodipodi:nodetypes="ccccc" />
    <path
       style="fill:none;stroke:#ffffff;stroke-width:3;stroke-linecap:round;stroke-linejoin:miter;stroke-miterlimit:4;stroke-dasharray:none;stroke-opacity:1"
       d="M 84.657622,100.38453 C 78.417457,82.07407 78.721687,102.73644 72.31803,96.460936"
       id="path3084"
       inkscape:connector-curvature="0"
       sodipodi:nodetypes="cc" />
    <path
       style="fill:#ffffff;fill-opacity:1;stroke:none;stroke-width:0.264583px;stroke-linecap:butt;stroke-linejoin:miter;stroke-opacity:1"
       d="m 93.544793,175.44792 h 22.159237 c -0.92696,-0.48401 -0.83942,-0.98348 0.009,-1.52135 -12.72332,-1.41943 -18.257926,-29.98115 -18.798829,-38.31795 l -3.161522,-1.76659"
       id="path3078-8"
       inkscape:connector-curvature="0"
       sodipodi:nodetypes="ccccc" />
  </g>
  <g
     inkscape:groupmode="layer"
     id="layer9"
     inkscape:label="KnightOLD"
     style="display:none">
    <path
       style="fill:#ffffff;fill-opacity:1;stroke:none;stroke-width:0.26458332px;stroke-linecap:butt;stroke-linejoin:miter;stroke-opacity:1"
       d="M 110.875,175.44792 H 79.125002 c -1.413738,-0.0296 -1.656481,-1.03953 -1.190625,-2.77813 6.693364,-29.98706 17.239277,-29.38235 18.506247,-46.69896 -0.635793,2.7702 -3.855659,3.54523 -5.820833,2.11667 -7.438137,4.72477 -4.939356,6.53785 -9.525,3.30729 -0.766221,-0.65043 -1.097563,-5.99722 -0.661459,-6.61458 11.995862,-14.4806 4.16175,-13.93942 13.716222,-24.833042 0.572367,-1.899228 -0.03989,-3.928118 -1.594998,-5.296387 2.174239,0.458413 6.922678,2.383088 6.399609,5.126297 20.549635,8.598782 5.923695,33.373552 7.276045,56.356252 1.39073,7.51872 3.09051,12.76515 5.30625,16.80104 0.83238,1.49316 -0.11465,2.52589 -0.66146,2.51355 z"
       id="path3130"
       inkscape:connector-curvature="0"
       sodipodi:nodetypes="ccccccccccccc" />
  </g>
  <g
     inkscape:groupmode="layer"
     id="layer1"
     inkscape:label="King"
     style="display:none;fill:#6b6b6b;fill-opacity:1">
    <g
       id="g4162"
       transform="translate(0.63732121)"
       style="fill:#292929;fill-opacity:1">
      <path
         style="fill:#292929;fill-opacity:1;stroke:none;stroke-width:4.64701;stroke-linecap:round;stroke-opacity:1"
         d="M 89.142293,75.452298 V 89.635311 H 74.739945 v 8.594949 h 14.634641 v 13.70546 c -6.823574,-4.03504 -13.570318,-8.15652 -25.223239,-6.75855 -10.317103,1.13216 -11.033151,16.48485 -10.728781,23.93021 -0.07412,5.34016 3.434974,23.76082 10.215419,30.11182 2.01677,2.36969 4.732803,4.02397 9.590274,7.30606 l -10.76847,-0.23229 c -3.844852,0 -4.363855,8.79635 0.200766,8.79635 l 34.035765,0.0309 c -9.751633,-9.10185 -3.561208,-15.23203 -25.581495,-21.90187 -7.017268,-4.00987 -13.707201,-38.14397 -4.319263,-38.14397 29.900758,-0.86835 22.257983,32.96355 22.257983,50.35204 0,4.36667 -4.514087,9.70484 7.642775,9.6938 V 75.232963 Z"
         id="path1266"
         sodipodi:nodetypes="cccccccccccccccsccc" />
      <path
         style="fill:#292929;fill-opacity:1;stroke:none;stroke-width:4.64701;stroke-linecap:round;stroke-opacity:1"
         d="M 99.583071,75.418306 V 89.60132 h 14.402339 v 8.594949 H 99.350771 v 13.705461 c 6.823579,-4.03504 13.570319,-8.15652 25.223239,-6.75855 10.3171,1.13216 11.03315,16.48485 10.72878,23.93021 0.0741,5.34016 -3.43497,23.76082 -10.21542,30.11182 -2.01677,2.36969 -4.7328,4.02397 -9.59027,7.30606 l 10.76847,-0.23229 c 3.84485,0 4.36385,8.79635 -0.20077,8.79635 l -34.03576,0.0309 c 9.75163,-9.10185 3.561211,-15.23203 25.58149,-21.90187 7.01727,-4.00987 13.7072,-38.14397 4.31927,-38.14397 -29.90076,-0.86835 -22.257989,32.96355 -22.257989,50.35204 0,4.36667 4.514089,9.70484 -7.642771,9.6938 V 75.198971 Z"
         id="path1266-3"
         sodipodi:nodetypes="cccccccccccccccsccc" />
    </g>
  </g>
  <g
     inkscape:groupmode="layer"
     id="layer8"
     inkscape:label="Bishop"
     style="display:inline">
    <path
       style="fill:#292929;fill-opacity:1;stroke:none;stroke-width:4.64701;stroke-linecap:round;stroke-opacity:1"
       d="m 101.43761,95.871061 c 10.80209,-2.99685 4.7055,-16.70947 -4.503658,-19.242651 -9.56463,3.362631 -13.55694,15.993021 -4.47137,19.172921 C 70.882927,111.76392 54.359566,155.10508 73.869231,160.35072 l -10.76847,-0.23229 c -3.844852,0 -4.363855,16.83928 0.200766,16.83928 l 64.513103,0.0309 c 3.02008,0 2.84743,-16.00476 -0.55278,-16.00476 -5.5285,0 -7.00555,-0.0817 -11.47396,-0.0817 22.71207,-6.67777 5.79573,-38.57884 -5.18169,-59.1925 -5.42777,8.85867 -10.897298,25.41811 -10.897298,31.59592 -5.71804,-3.31149 -1.59114,-25.46566 1.728708,-37.434509 z"
       id="path1266-8"
       sodipodi:nodetypes="cccccccccccc" />
  </g>
</svg>
