<?xml version="1.0" encoding="UTF-8" standalone="no"?>
<!-- Created with Inkscape (http://www.inkscape.org/) -->

<svg
   width="190mm"
   height="190mm"
   viewBox="0 0 190 190"
   version="1.1"
   id="svg8"
   inkscape:version="1.2 (dc2aeda, 2022-05-15)"
   sodipodi:docname="PawnWhiteUnknown.svg"
   xmlns:inkscape="http://www.inkscape.org/namespaces/inkscape"
   xmlns:sodipodi="http://sodipodi.sourceforge.net/DTD/sodipodi-0.dtd"
   xmlns="http://www.w3.org/2000/svg"
   xmlns:svg="http://www.w3.org/2000/svg"
   xmlns:rdf="http://www.w3.org/1999/02/22-rdf-syntax-ns#"
   xmlns:cc="http://creativecommons.org/ns#"
   xmlns:dc="http://purl.org/dc/elements/1.1/">
  <defs
     id="defs2" />
  <sodipodi:namedview
     id="base"
     pagecolor="#ffffff"
     bordercolor="#666666"
     borderopacity="1.0"
     inkscape:pageopacity="0.0"
     inkscape:pageshadow="2"
     inkscape:zoom="0.98994949"
     inkscape:cx="331.33004"
     inkscape:cy="461.63971"
     inkscape:document-units="mm"
     inkscape:current-layer="layer2"
     showgrid="false"
     inkscape:window-width="1515"
     inkscape:window-height="820"
     inkscape:window-x="101"
     inkscape:window-y="50"
     inkscape:window-maximized="0"
     inkscape:showpageshadow="2"
     inkscape:pagecheckerboard="0"
     inkscape:deskcolor="#d1d1d1"
     showguides="false" />
  <metadata
     id="metadata5">
    <rdf:RDF>
      <cc:Work
         rdf:about="">
        <dc:format>image/svg+xml</dc:format>
        <dc:type
           rdf:resource="http://purl.org/dc/dcmitype/StillImage" />
        <dc:title />
      </cc:Work>
    </rdf:RDF>
  </metadata>
  <g
     inkscape:groupmode="layer"
     id="layer2"
     inkscape:label="CloakFrontWhite"
     style="display:inline"
     transform="translate(0,-107)">
    <g
       id="g1589"
       transform="matrix(1.5353637,0,0,0.9945227,-52.795587,1.5188742)">
      <g
         transform="translate(-9.621703,43.297663)"
         style="fill:#dadada;fill-opacity:1"
         id="g965">
        <path
           style="display:inline;fill:#dadada;fill-opacity:1;stroke:#000000;stroke-width:4;stroke-linecap:round;stroke-linejoin:miter;stroke-miterlimit:4;stroke-dasharray:none;stroke-opacity:1"
           d="m 106.13324,72.22683 c -5.08061,0 -11.847072,4.506889 -12.010432,6.548099 -2.82601,19.75468 -4.63617,17.64569 -6.08038,25.791521 -0.27118,2.20282 -0.67707,4.04745 0.26727,6.08038 -4.416529,2.12471 -2.486444,2.74458 -8.61945,5.54584 l -3.74177,90.06983 c -0.94163,2.54276 -2.22692,4.93826 -4.40995,6.94901 v 11.49259 c -5.34836,7.81541 -13.246956,15.07119 -21.114289,19.64431 l 56.523341,1e-5"
           id="path829"
           inkscape:connector-curvature="0"
           sodipodi:nodetypes="cccccccccc" />
        <path
           style="display:inline;fill:#dadada;fill-opacity:1;stroke:#000000;stroke-width:4;stroke-linecap:round;stroke-linejoin:miter;stroke-miterlimit:4;stroke-dasharray:none;stroke-opacity:1"
           d="m 105.88267,72.22683 c 5.38046,0 11.5965,4.50689 11.75986,6.5481 2.82601,19.754682 4.63617,17.64569 6.08038,25.79153 0.27118,2.20282 0.67707,4.04745 -0.26727,6.08037 4.41653,2.12471 2.48645,2.74459 8.61945,5.54585 l 3.74177,90.06983 c 0.94163,2.54276 2.22692,4.93826 4.40995,6.949 v 11.49259 c 5.34836,7.81541 13.24696,15.07119 21.11429,19.64432 h -55.4626"
           id="path829-8"
           inkscape:connector-curvature="0"
           sodipodi:nodetypes="cccccccccc" />
      </g>
      <path
         sodipodi:nodetypes="cc"
         inkscape:connector-curvature="0"
         id="path878"
         d="m 79.82389,155.1472 c 4.385568,10.14339 15.195987,12.84147 24.21078,18.37428"
         style="fill:none;stroke:#000000;stroke-width:3;stroke-linecap:round;stroke-linejoin:miter;stroke-miterlimit:4;stroke-dasharray:none;stroke-opacity:1" />
      <path
         sodipodi:nodetypes="cc"
         inkscape:connector-curvature="0"
         id="path880"
         d="m 112.49759,155.48129 c -7.88105,29.24253 -28.625108,36.19536 -43.60887,55.05701"
         style="fill:none;stroke:#000000;stroke-width:3;stroke-linecap:round;stroke-linejoin:miter;stroke-miterlimit:4;stroke-dasharray:none;stroke-opacity:1" />
      <path
         sodipodi:nodetypes="cccc"
         inkscape:connector-curvature="0"
         id="path882"
         d="m 122.45339,159.49034 c -7.01216,53.8371 -27.895653,44.28272 -56.082671,82.05225 l 1.278973,7.78133 c 19.132301,-28.74374 49.340358,-37.32927 54.803698,-89.83358 z"
         style="fill:#000000;fill-opacity:1;stroke:#000000;stroke-width:3;stroke-linecap:round;stroke-linejoin:miter;stroke-miterlimit:4;stroke-dasharray:none;stroke-opacity:1" />
      <path
         sodipodi:nodetypes="cc"
         inkscape:connector-curvature="0"
         id="path880-5"
         d="m 122.74462,176.88865 c -5.23523,39.2589 -29.570063,72.29209 -74.79192,106.0838"
         style="display:inline;fill:none;stroke:#000000;stroke-width:3;stroke-linecap:round;stroke-linejoin:miter;stroke-miterlimit:4;stroke-dasharray:none;stroke-opacity:1" />
      <path
         sodipodi:nodetypes="cc"
         inkscape:connector-curvature="0"
         id="path880-5-2"
         d="m 124.54326,202.78224 c -2.40041,22.06098 -15.20696,64.1656 -45.498767,84.16118"
         style="display:inline;fill:none;stroke:#000000;stroke-width:3;stroke-linecap:round;stroke-linejoin:miter;stroke-miterlimit:4;stroke-dasharray:none;stroke-opacity:1" />
      <path
         sodipodi:nodetypes="cc"
         inkscape:connector-curvature="0"
         id="path880-5-2-1"
         d="m 106.30652,257.40035 c 9.31685,23.76187 26.00081,30.28289 45.41288,30.24573"
         style="display:inline;fill:none;stroke:#000000;stroke-width:3;stroke-linecap:round;stroke-linejoin:miter;stroke-miterlimit:4;stroke-dasharray:none;stroke-opacity:1" />
      <path
         sodipodi:nodetypes="cc"
         inkscape:connector-curvature="0"
         id="path880-5-2-1-5"
         d="m 115.83179,237.68318 c 1.37935,20.73806 9.86096,42.44054 35.88761,49.9629"
         style="display:inline;fill:none;stroke:#000000;stroke-width:3;stroke-linecap:round;stroke-linejoin:miter;stroke-miterlimit:4;stroke-dasharray:none;stroke-opacity:1" />
      <path
         sodipodi:nodetypes="ccccccc"
         inkscape:connector-curvature="0"
         id="path955"
         d="m 96.211627,124.37876 c -2.56034,2.57294 -5.18223,5.12125 -7.134297,7.9375 -1.221277,10.20553 -2.751824,11.74379 -2.55134,19.891 0.137694,4.18439 8.594917,7.81373 12.436617,10.20813 3.275793,-3.14159 7.453453,-8.69565 7.469203,-11.29343 0.1183,-6.25364 -1.93529,-9.27207 -2.61341,-18.42772 -1.58935,-2.77183 -4.876443,-5.63815 -7.606773,-8.31548 z"
         style="fill:#000000;fill-opacity:1;stroke:#000000;stroke-width:0.264583px;stroke-linecap:butt;stroke-linejoin:miter;stroke-opacity:1" />
      <path
         sodipodi:nodetypes="cccc"
         inkscape:connector-curvature="0"
         id="path984"
         d="m 93.849277,186.83933 c -5.791394,-3.92908 -12.129231,-9.5413 -15.308036,-15.40254 1.985944,5.91504 9.000393,15.22868 11.433778,18.80432 z"
         style="fill:#000000;fill-opacity:1;stroke:#000000;stroke-width:0.264583px;stroke-linecap:butt;stroke-linejoin:miter;stroke-opacity:1" />
    </g>
  </g>
</svg>
